<svg width="18.000000" height="18.000000" viewBox="0 0 16 16" fill="none" xmlns="http://www.w3.org/2000/svg" xmlns:xlink="http://www.w3.org/1999/xlink">
	<desc>
			Created with Pixso.
	</desc>
	<defs/>
	<path id="Shape" d="M4 1L9 1C9.95 1 10.74 1.66 10.94 2.55C10.8 2.51 10.65 2.5 10.5 2.5L5.5 2.5C4.39 2.5 3.5 3.39 3.5 4.5L3.5 11.93C2.63 11.71 2 10.93 2 10L2 3C2 1.89 2.89 1 4 1ZM12 4L7 4C5.89 4 5 4.89 5 6L5 13C5 14.1 5.89 15 7 15L12 15C13.1 15 14 14.1 14 13L14 6C14 4.89 13.1 4 12 4Z" fill="currentColor" fill-opacity="1.000000" fill-rule="evenodd"/>
</svg>
