<svg width="18.000000" height="18.000000" viewBox="0 0 24 24" fill="none" xmlns="http://www.w3.org/2000/svg" xmlns:xlink="http://www.w3.org/1999/xlink">
	<desc>
			Created with Pixso.
	</desc>
	<defs>
		<clipPath id="clip24_223">
			<rect width="24.000000" height="24.000000" fill="white" fill-opacity="0"/>
		</clipPath>
	</defs>
	<g clip-path="url(#clip24_223)">
		<path d="M18.97 15.66L21.37 17.37C21.89 17.74 22.08 18.45 21.7 18.97C18.58 23.23 12.09 19.85 8.49 16.25C4.89 12.65 1.51 6.16 5.77 3.04C6.29 2.66 6.99 2.84 7.37 3.36L9.08 5.76C9.51 6.36 9.72 6.66 9.81 6.99C9.9 7.28 9.92 7.58 9.87 7.88C9.81 8.22 9.63 8.54 9.27 9.18L8.49 10.59C8.49 10.59 9.15 11.96 10.96 13.77C12.77 15.59 14.15 16.25 14.15 16.25L15.56 15.46C16.2 15.11 16.52 14.93 16.86 14.87C17.15 14.82 17.46 14.84 17.75 14.92C18.08 15.02 18.38 15.23 18.97 15.66Z" fill="currentColor" fill-opacity="1.000000" fill-rule="evenodd"/>
	</g>
</svg>
